# xmcd
# 
# Track frame offsets:
#     150
#     15814
#     26632
#     43150
#     59219
#     78562
#     94008
#     113568
#     132894
#     152550
#     170759
#     191659
#     207276
#     223790
#     240927
# 
# Disc length: 3501
# 
# Revision: 2
# Processed by: cddbd v1.5.2PL0 Copyright (c) Steve Scherf et al.
# Submitted via: BonkEnc v1.0.8
# 
DISCID=c80dab0f
DTITLE=Modus - Modus - Gold
DYEAR=2005
DGENRE=Pop
TTITLE0=Usmev
TTITLE1=Dievcata
TTITLE2=Maly velky vlak
TTITLE3=Stara kara
TTITLE4=Pozhasinane
TTITLE5=Spoluhracka
TTITLE6=Roberta
TTITLE7=Magovo cislo
TTITLE8=Karty su uz rozdane
TTITLE9=Ty, ja a moj brat (Sklicka)
TTITLE10=Ked sa raz oci dohodnu
TTITLE11=Kapely starnu
TTITLE12=Naposledy
TTITLE13=Sladky hlas
TTITLE14=Velky sen mora (Mena lodi stratenych)
EXTD=
EXTT0=
EXTT1=
EXTT2=
EXTT3=
EXTT4=
EXTT5=
EXTT6=
EXTT7=
EXTT8=
EXTT9=
EXTT10=
EXTT11=
EXTT12=
EXTT13=
EXTT14=
PLAYORDER=
